<?xml version="1.0" encoding="UTF-8" standalone="no"?>
<!DOCTYPE svg PUBLIC "-//W3C//DTD SVG 1.1//EN"
 "http://www.w3.org/Graphics/SVG/1.1/DTD/svg11.dtd">
<!-- Generated by graphviz version 2.26.3 (20100126.1600)
 -->
<!-- Title: controllers_diagram Pages: 1 -->
<svg width="1131pt" height="853pt"
 viewBox="0.00 0.00 1131.00 852.98" xmlns="http://www.w3.org/2000/svg" xmlns:xlink="http://www.w3.org/1999/xlink">
<g id="graph1" class="graph" transform="scale(1 1) rotate(0) translate(4 848.977)">
<title>controllers_diagram</title>
<polygon fill="white" stroke="white" points="-4,5 -4,-848.977 1128,-848.977 1128,5 -4,5"/>
<!-- _diagram_info -->
<g id="node1" class="node"><title>_diagram_info</title>
<text text-anchor="start" x="880" y="-480.3" font-family="Times Roman,serif" font-size="13.00">Controllers diagram</text>
<text text-anchor="start" x="880" y="-463.3" font-family="Times Roman,serif" font-size="13.00">Date: Sep 02 2014 &#45; 16:19</text>
<text text-anchor="start" x="880" y="-446.3" font-family="Times Roman,serif" font-size="13.00">Migration version: 20140828125008</text>
<text text-anchor="start" x="880" y="-429.3" font-family="Times Roman,serif" font-size="13.00">Generated by RailRoady 1.1.0</text>
<text text-anchor="start" x="880" y="-412.3" font-family="Times Roman,serif" font-size="13.00">http://railroady.prestonlee.com</text>
</g>
<!-- SystemsController -->
<g id="node2" class="node"><title>SystemsController</title>
<polyline fill="none" stroke="black" points="13,-686.782 132,-686.782 "/>
<path fill="none" stroke="black" d="M132,-686.782C138,-686.782 144,-692.782 144,-698.782"/>
<polyline fill="none" stroke="black" points="144,-698.782 144,-794.782 "/>
<path fill="none" stroke="black" d="M144,-794.782C144,-800.782 138,-806.782 132,-806.782"/>
<polyline fill="none" stroke="black" points="132,-806.782 13,-806.782 "/>
<path fill="none" stroke="black" d="M13,-806.782C7,-806.782 1,-800.782 1,-794.782"/>
<polyline fill="none" stroke="black" points="1,-794.782 1,-698.782 "/>
<path fill="none" stroke="black" d="M1,-698.782C1,-692.782 7,-686.782 13,-686.782"/>
<text text-anchor="middle" x="72.5" y="-790.182" font-family="Times Roman,serif" font-size="14.00">SystemsController</text>
<polyline fill="none" stroke="black" points="1,-780.782 144,-780.782 "/>
<text text-anchor="start" x="9" y="-764.182" font-family="Times Roman,serif" font-size="14.00">index</text>
<text text-anchor="start" x="9" y="-746.182" font-family="Times Roman,serif" font-size="14.00">show</text>
<polyline fill="none" stroke="black" points="1,-736.782 144,-736.782 "/>
<polyline fill="none" stroke="black" points="1,-712.782 144,-712.782 "/>
<text text-anchor="start" x="9" y="-696.182" font-family="Times Roman,serif" font-size="14.00">_layout</text>
</g>
<!-- API::V1::IncidentsController -->
<g id="node3" class="node"><title>API::V1::IncidentsController</title>
<polyline fill="none" stroke="black" points="643.739,-651.477 827.739,-651.477 "/>
<path fill="none" stroke="black" d="M827.739,-651.477C833.739,-651.477 839.739,-657.477 839.739,-663.477"/>
<polyline fill="none" stroke="black" points="839.739,-663.477 839.739,-831.477 "/>
<path fill="none" stroke="black" d="M839.739,-831.477C839.739,-837.477 833.739,-843.477 827.739,-843.477"/>
<polyline fill="none" stroke="black" points="827.739,-843.477 643.739,-843.477 "/>
<path fill="none" stroke="black" d="M643.739,-843.477C637.739,-843.477 631.739,-837.477 631.739,-831.477"/>
<polyline fill="none" stroke="black" points="631.739,-831.477 631.739,-663.477 "/>
<path fill="none" stroke="black" d="M631.739,-663.477C631.739,-657.477 637.739,-651.477 643.739,-651.477"/>
<text text-anchor="middle" x="735.739" y="-826.877" font-family="Times Roman,serif" font-size="14.00">API::V1::IncidentsController</text>
<polyline fill="none" stroke="black" points="631.739,-817.477 839.739,-817.477 "/>
<text text-anchor="start" x="639.739" y="-800.877" font-family="Times Roman,serif" font-size="14.00">create</text>
<text text-anchor="start" x="639.739" y="-782.877" font-family="Times Roman,serif" font-size="14.00">destroy</text>
<text text-anchor="start" x="639.739" y="-764.877" font-family="Times Roman,serif" font-size="14.00">new</text>
<text text-anchor="start" x="639.739" y="-746.877" font-family="Times Roman,serif" font-size="14.00">update</text>
<polyline fill="none" stroke="black" points="631.739,-737.477 839.739,-737.477 "/>
<polyline fill="none" stroke="black" points="631.739,-713.477 839.739,-713.477 "/>
<text text-anchor="start" x="639.739" y="-696.877" font-family="Times Roman,serif" font-size="14.00">_layout</text>
<text text-anchor="start" x="639.739" y="-678.877" font-family="Times Roman,serif" font-size="14.00">get_system</text>
<text text-anchor="start" x="639.739" y="-660.877" font-family="Times Roman,serif" font-size="14.00">incident_params</text>
</g>
<!-- API::V2::SystemsController -->
<g id="node4" class="node"><title>API::V2::SystemsController</title>
<polyline fill="none" stroke="black" points="315.584,-90.9034 494.584,-90.9034 "/>
<path fill="none" stroke="black" d="M494.584,-90.9034C500.584,-90.9034 506.584,-96.9034 506.584,-102.903"/>
<polyline fill="none" stroke="black" points="506.584,-102.903 506.584,-180.903 "/>
<path fill="none" stroke="black" d="M506.584,-180.903C506.584,-186.903 500.584,-192.903 494.584,-192.903"/>
<polyline fill="none" stroke="black" points="494.584,-192.903 315.584,-192.903 "/>
<path fill="none" stroke="black" d="M315.584,-192.903C309.584,-192.903 303.584,-186.903 303.584,-180.903"/>
<polyline fill="none" stroke="black" points="303.584,-180.903 303.584,-102.903 "/>
<path fill="none" stroke="black" d="M303.584,-102.903C303.584,-96.9034 309.584,-90.9034 315.584,-90.9034"/>
<text text-anchor="middle" x="405.084" y="-176.303" font-family="Times Roman,serif" font-size="14.00">API::V2::SystemsController</text>
<polyline fill="none" stroke="black" points="303.584,-166.903 506.584,-166.903 "/>
<text text-anchor="start" x="311.584" y="-150.303" font-family="Times Roman,serif" font-size="14.00">index</text>
<polyline fill="none" stroke="black" points="303.584,-140.903 506.584,-140.903 "/>
<polyline fill="none" stroke="black" points="303.584,-116.903 506.584,-116.903 "/>
<text text-anchor="start" x="311.584" y="-100.303" font-family="Times Roman,serif" font-size="14.00">_layout</text>
</g>
<!-- API::V2::TokensController -->
<g id="node5" class="node"><title>API::V2::TokensController</title>
<polyline fill="none" stroke="black" points="213.197,-690.773 381.197,-690.773 "/>
<path fill="none" stroke="black" d="M381.197,-690.773C387.197,-690.773 393.197,-696.773 393.197,-702.773"/>
<polyline fill="none" stroke="black" points="393.197,-702.773 393.197,-780.773 "/>
<path fill="none" stroke="black" d="M393.197,-780.773C393.197,-786.773 387.197,-792.773 381.197,-792.773"/>
<polyline fill="none" stroke="black" points="381.197,-792.773 213.197,-792.773 "/>
<path fill="none" stroke="black" d="M213.197,-792.773C207.197,-792.773 201.197,-786.773 201.197,-780.773"/>
<polyline fill="none" stroke="black" points="201.197,-780.773 201.197,-702.773 "/>
<path fill="none" stroke="black" d="M201.197,-702.773C201.197,-696.773 207.197,-690.773 213.197,-690.773"/>
<text text-anchor="middle" x="297.197" y="-776.173" font-family="Times Roman,serif" font-size="14.00">API::V2::TokensController</text>
<polyline fill="none" stroke="black" points="201.197,-766.773 393.197,-766.773 "/>
<text text-anchor="start" x="209.197" y="-750.173" font-family="Times Roman,serif" font-size="14.00">get_new_token</text>
<polyline fill="none" stroke="black" points="201.197,-740.773 393.197,-740.773 "/>
<polyline fill="none" stroke="black" points="201.197,-716.773 393.197,-716.773 "/>
<text text-anchor="start" x="209.197" y="-700.173" font-family="Times Roman,serif" font-size="14.00">_layout</text>
</g>
<!-- API::V2::IncidentsController -->
<g id="node6" class="node"><title>API::V2::IncidentsController</title>
<polyline fill="none" stroke="black" points="417.944,-690.376 601.944,-690.376 "/>
<path fill="none" stroke="black" d="M601.944,-690.376C607.944,-690.376 613.944,-696.376 613.944,-702.376"/>
<polyline fill="none" stroke="black" points="613.944,-702.376 613.944,-780.376 "/>
<path fill="none" stroke="black" d="M613.944,-780.376C613.944,-786.376 607.944,-792.376 601.944,-792.376"/>
<polyline fill="none" stroke="black" points="601.944,-792.376 417.944,-792.376 "/>
<path fill="none" stroke="black" d="M417.944,-792.376C411.944,-792.376 405.944,-786.376 405.944,-780.376"/>
<polyline fill="none" stroke="black" points="405.944,-780.376 405.944,-702.376 "/>
<path fill="none" stroke="black" d="M405.944,-702.376C405.944,-696.376 411.944,-690.376 417.944,-690.376"/>
<text text-anchor="middle" x="509.944" y="-775.776" font-family="Times Roman,serif" font-size="14.00">API::V2::IncidentsController</text>
<polyline fill="none" stroke="black" points="405.944,-766.376 613.944,-766.376 "/>
<text text-anchor="start" x="413.944" y="-749.776" font-family="Times Roman,serif" font-size="14.00">index</text>
<polyline fill="none" stroke="black" points="405.944,-740.376 613.944,-740.376 "/>
<polyline fill="none" stroke="black" points="405.944,-716.376 613.944,-716.376 "/>
<text text-anchor="start" x="413.944" y="-699.776" font-family="Times Roman,serif" font-size="14.00">_layout</text>
</g>
<!-- ApplicationController -->
<g id="node7" class="node"><title>ApplicationController</title>
<polyline fill="none" stroke="black" points="335.609,-386.496 472.609,-386.496 "/>
<path fill="none" stroke="black" d="M472.609,-386.496C478.609,-386.496 484.609,-392.496 484.609,-398.496"/>
<polyline fill="none" stroke="black" points="484.609,-398.496 484.609,-474.496 "/>
<path fill="none" stroke="black" d="M484.609,-474.496C484.609,-480.496 478.609,-486.496 472.609,-486.496"/>
<polyline fill="none" stroke="black" points="472.609,-486.496 335.609,-486.496 "/>
<path fill="none" stroke="black" d="M335.609,-486.496C329.609,-486.496 323.609,-480.496 323.609,-474.496"/>
<polyline fill="none" stroke="black" points="323.609,-474.496 323.609,-398.496 "/>
<path fill="none" stroke="black" d="M323.609,-398.496C323.609,-392.496 329.609,-386.496 335.609,-386.496"/>
<text text-anchor="middle" x="404.109" y="-469.896" font-family="Times Roman,serif" font-size="14.00">ApplicationController</text>
<polyline fill="none" stroke="black" points="323.609,-460.496 484.609,-460.496 "/>
<polyline fill="none" stroke="black" points="323.609,-436.496 484.609,-436.496 "/>
<polyline fill="none" stroke="black" points="323.609,-412.496 484.609,-412.496 "/>
<text text-anchor="start" x="331.609" y="-395.896" font-family="Times Roman,serif" font-size="14.00">_layout</text>
</g>
<!-- ApplicationController&#45;&gt;SystemsController -->
<g id="edge2" class="edge"><title>ApplicationController&#45;&gt;SystemsController</title>
<path fill="none" stroke="black" d="M350.462,-486.693C292.171,-541.236 199.062,-628.358 136.872,-686.549"/>
</g>
<!-- ApplicationController&#45;&gt;API::V1::IncidentsController -->
<g id="edge4" class="edge"><title>ApplicationController&#45;&gt;API::V1::IncidentsController</title>
<path fill="none" stroke="black" d="M457.76,-486.806C505.056,-531.157 575.271,-597 633.298,-651.414"/>
</g>
<!-- ApplicationController&#45;&gt;API::V2::SystemsController -->
<g id="edge6" class="edge"><title>ApplicationController&#45;&gt;API::V2::SystemsController</title>
<path fill="none" stroke="black" d="M404.276,-386.188C404.454,-332.287 404.736,-247.192 404.915,-192.991"/>
</g>
<!-- ApplicationController&#45;&gt;API::V2::TokensController -->
<g id="edge8" class="edge"><title>ApplicationController&#45;&gt;API::V2::TokensController</title>
<path fill="none" stroke="black" d="M386.575,-486.564C366.848,-542.892 334.974,-633.905 315.098,-690.658"/>
</g>
<!-- ApplicationController&#45;&gt;API::V2::IncidentsController -->
<g id="edge10" class="edge"><title>ApplicationController&#45;&gt;API::V2::IncidentsController</title>
<path fill="none" stroke="black" d="M421.467,-486.499C440.995,-542.754 472.548,-633.649 492.223,-690.328"/>
</g>
<!-- CommentsController -->
<g id="node8" class="node"><title>CommentsController</title>
<polyline fill="none" stroke="black" points="40.3351,-370.371 175.335,-370.371 "/>
<path fill="none" stroke="black" d="M175.335,-370.371C181.335,-370.371 187.335,-376.371 187.335,-382.371"/>
<polyline fill="none" stroke="black" points="187.335,-382.371 187.335,-496.371 "/>
<path fill="none" stroke="black" d="M187.335,-496.371C187.335,-502.371 181.335,-508.371 175.335,-508.371"/>
<polyline fill="none" stroke="black" points="175.335,-508.371 40.3351,-508.371 "/>
<path fill="none" stroke="black" d="M40.3351,-508.371C34.3351,-508.371 28.3351,-502.371 28.3351,-496.371"/>
<polyline fill="none" stroke="black" points="28.3351,-496.371 28.3351,-382.371 "/>
<path fill="none" stroke="black" d="M28.3351,-382.371C28.3351,-376.371 34.3351,-370.371 40.3351,-370.371"/>
<text text-anchor="middle" x="107.835" y="-491.771" font-family="Times Roman,serif" font-size="14.00">CommentsController</text>
<polyline fill="none" stroke="black" points="28.3351,-482.371 187.335,-482.371 "/>
<text text-anchor="start" x="36.3351" y="-465.771" font-family="Times Roman,serif" font-size="14.00">create</text>
<text text-anchor="start" x="36.3351" y="-447.771" font-family="Times Roman,serif" font-size="14.00">new</text>
<polyline fill="none" stroke="black" points="28.3351,-438.371 187.335,-438.371 "/>
<polyline fill="none" stroke="black" points="28.3351,-414.371 187.335,-414.371 "/>
<text text-anchor="start" x="36.3351" y="-397.771" font-family="Times Roman,serif" font-size="14.00">_layout</text>
<text text-anchor="start" x="36.3351" y="-379.771" font-family="Times Roman,serif" font-size="14.00">comment_params</text>
</g>
<!-- ApplicationController&#45;&gt;CommentsController -->
<g id="edge12" class="edge"><title>ApplicationController&#45;&gt;CommentsController</title>
<path fill="none" stroke="black" d="M323.543,-437.278C281.218,-437.689 229.529,-438.19 187.36,-438.6"/>
</g>
<!-- ContactsController -->
<g id="node9" class="node"><title>ContactsController</title>
<polyline fill="none" stroke="black" points="639.948,-389.331 761.948,-389.331 "/>
<path fill="none" stroke="black" d="M761.948,-389.331C767.948,-389.331 773.948,-395.331 773.948,-401.331"/>
<polyline fill="none" stroke="black" points="773.948,-401.331 773.948,-479.331 "/>
<path fill="none" stroke="black" d="M773.948,-479.331C773.948,-485.331 767.948,-491.331 761.948,-491.331"/>
<polyline fill="none" stroke="black" points="761.948,-491.331 639.948,-491.331 "/>
<path fill="none" stroke="black" d="M639.948,-491.331C633.948,-491.331 627.948,-485.331 627.948,-479.331"/>
<polyline fill="none" stroke="black" points="627.948,-479.331 627.948,-401.331 "/>
<path fill="none" stroke="black" d="M627.948,-401.331C627.948,-395.331 633.948,-389.331 639.948,-389.331"/>
<text text-anchor="middle" x="700.948" y="-474.731" font-family="Times Roman,serif" font-size="14.00">ContactsController</text>
<polyline fill="none" stroke="black" points="627.948,-465.331 773.948,-465.331 "/>
<text text-anchor="start" x="635.948" y="-448.731" font-family="Times Roman,serif" font-size="14.00">index</text>
<polyline fill="none" stroke="black" points="627.948,-439.331 773.948,-439.331 "/>
<polyline fill="none" stroke="black" points="627.948,-415.331 773.948,-415.331 "/>
<text text-anchor="start" x="635.948" y="-398.731" font-family="Times Roman,serif" font-size="14.00">_layout</text>
</g>
<!-- ApplicationController&#45;&gt;ContactsController -->
<g id="edge14" class="edge"><title>ApplicationController&#45;&gt;ContactsController</title>
<path fill="none" stroke="black" d="M484.83,-437.539C529.466,-438.115 584.5,-438.826 627.861,-439.387"/>
</g>
<!-- SessionsController -->
<g id="node10" class="node"><title>SessionsController</title>
<polyline fill="none" stroke="black" points="47.1802,-91.0055 167.18,-91.0055 "/>
<path fill="none" stroke="black" d="M167.18,-91.0055C173.18,-91.0055 179.18,-97.0055 179.18,-103.006"/>
<polyline fill="none" stroke="black" points="179.18,-103.006 179.18,-181.006 "/>
<path fill="none" stroke="black" d="M179.18,-181.006C179.18,-187.006 173.18,-193.006 167.18,-193.006"/>
<polyline fill="none" stroke="black" points="167.18,-193.006 47.1802,-193.006 "/>
<path fill="none" stroke="black" d="M47.1802,-193.006C41.1802,-193.006 35.1802,-187.006 35.1802,-181.006"/>
<polyline fill="none" stroke="black" points="35.1802,-181.006 35.1802,-103.006 "/>
<path fill="none" stroke="black" d="M35.1802,-103.006C35.1802,-97.0055 41.1802,-91.0055 47.1802,-91.0055"/>
<text text-anchor="middle" x="107.18" y="-176.406" font-family="Times Roman,serif" font-size="14.00">SessionsController</text>
<polyline fill="none" stroke="black" points="35.1802,-167.006 179.18,-167.006 "/>
<text text-anchor="start" x="43.1802" y="-150.406" font-family="Times Roman,serif" font-size="14.00">create</text>
<polyline fill="none" stroke="black" points="35.1802,-141.006 179.18,-141.006 "/>
<polyline fill="none" stroke="black" points="35.1802,-117.006 179.18,-117.006 "/>
<text text-anchor="start" x="43.1802" y="-100.406" font-family="Times Roman,serif" font-size="14.00">_layout</text>
</g>
<!-- ApplicationController&#45;&gt;SessionsController -->
<g id="edge16" class="edge"><title>ApplicationController&#45;&gt;SessionsController</title>
<path fill="none" stroke="black" d="M353.403,-386.206C299.074,-332.323 213.304,-247.257 158.673,-193.076"/>
</g>
<!-- Admin::IncidentsController -->
<g id="node11" class="node"><title>Admin::IncidentsController</title>
<polyline fill="none" stroke="black" points="614.473,-1.5 790.473,-1.5 "/>
<path fill="none" stroke="black" d="M790.473,-1.5C796.473,-1.5 802.473,-7.5 802.473,-13.5"/>
<polyline fill="none" stroke="black" points="802.473,-13.5 802.473,-271.5 "/>
<path fill="none" stroke="black" d="M802.473,-271.5C802.473,-277.5 796.473,-283.5 790.473,-283.5"/>
<polyline fill="none" stroke="black" points="790.473,-283.5 614.473,-283.5 "/>
<path fill="none" stroke="black" d="M614.473,-283.5C608.473,-283.5 602.473,-277.5 602.473,-271.5"/>
<polyline fill="none" stroke="black" points="602.473,-271.5 602.473,-13.5 "/>
<path fill="none" stroke="black" d="M602.473,-13.5C602.473,-7.5 608.473,-1.5 614.473,-1.5"/>
<text text-anchor="middle" x="702.473" y="-266.9" font-family="Times Roman,serif" font-size="14.00">Admin::IncidentsController</text>
<polyline fill="none" stroke="black" points="602.473,-257.5 802.473,-257.5 "/>
<text text-anchor="start" x="610.473" y="-240.9" font-family="Times Roman,serif" font-size="14.00">create</text>
<text text-anchor="start" x="610.473" y="-222.9" font-family="Times Roman,serif" font-size="14.00">destroy</text>
<text text-anchor="start" x="610.473" y="-204.9" font-family="Times Roman,serif" font-size="14.00">edit</text>
<text text-anchor="start" x="610.473" y="-186.9" font-family="Times Roman,serif" font-size="14.00">index</text>
<text text-anchor="start" x="610.473" y="-168.9" font-family="Times Roman,serif" font-size="14.00">new</text>
<text text-anchor="start" x="610.473" y="-150.9" font-family="Times Roman,serif" font-size="14.00">update</text>
<polyline fill="none" stroke="black" points="602.473,-141.5 802.473,-141.5 "/>
<polyline fill="none" stroke="black" points="602.473,-117.5 802.473,-117.5 "/>
<text text-anchor="start" x="610.473" y="-100.9" font-family="Times Roman,serif" font-size="14.00">_layout</text>
<text text-anchor="start" x="610.473" y="-82.9" font-family="Times Roman,serif" font-size="14.00">check_user</text>
<text text-anchor="start" x="610.473" y="-64.9" font-family="Times Roman,serif" font-size="14.00">get_incident</text>
<text text-anchor="start" x="610.473" y="-46.9" font-family="Times Roman,serif" font-size="14.00">incident_params</text>
<text text-anchor="start" x="610.473" y="-28.9" font-family="Times Roman,serif" font-size="14.00">list_systems</text>
<text text-anchor="start" x="610.473" y="-10.9" font-family="Times Roman,serif" font-size="14.00">no_open_incidents?</text>
</g>
<!-- ApplicationController&#45;&gt;Admin::IncidentsController -->
<g id="edge18" class="edge"><title>ApplicationController&#45;&gt;Admin::IncidentsController</title>
<path fill="none" stroke="black" d="M455.061,-386.29C495.339,-346.602 552.814,-289.968 602.232,-241.273"/>
</g>
</g>
</svg>
