<?xml version="1.0" encoding="UTF-8" standalone="no"?>
<!DOCTYPE svg PUBLIC "-//W3C//DTD SVG 1.1//EN"
 "http://www.w3.org/Graphics/SVG/1.1/DTD/svg11.dtd">
<!-- Generated by graphviz version 2.26.3 (20100126.1600)
 -->
<!-- Title: models_diagram Pages: 1 -->
<svg width="838pt" height="176pt"
 viewBox="0.00 0.00 838.00 176.00" xmlns="http://www.w3.org/2000/svg" xmlns:xlink="http://www.w3.org/1999/xlink">
<g id="graph1" class="graph" transform="scale(1 1) rotate(0) translate(4 172)">
<title>models_diagram</title>
<polygon fill="white" stroke="white" points="-4,5 -4,-172 835,-172 835,5 -4,5"/>
<!-- _diagram_info -->
<g id="node1" class="node"><title>_diagram_info</title>
<text text-anchor="start" x="8" y="-151.8" font-family="Times Roman,serif" font-size="13.00">Models diagram</text>
<text text-anchor="start" x="8" y="-134.8" font-family="Times Roman,serif" font-size="13.00">Date: Sep 02 2014 &#45; 16:19</text>
<text text-anchor="start" x="8" y="-117.8" font-family="Times Roman,serif" font-size="13.00">Migration version: 20140828125008</text>
<text text-anchor="start" x="8" y="-100.8" font-family="Times Roman,serif" font-size="13.00">Generated by RailRoady 1.1.0</text>
<text text-anchor="start" x="8" y="-83.8" font-family="Times Roman,serif" font-size="13.00">http://railroady.prestonlee.com</text>
</g>
<!-- IncidentHistory -->
<g id="node2" class="node"><title>IncidentHistory</title>
<ellipse fill="none" stroke="black" cx="238" cy="-19" rx="85.7684" ry="18.3848"/>
<text text-anchor="middle" x="238" y="-15.4" font-family="Times Roman,serif" font-size="14.00">IncidentHistory</text>
</g>
<!-- Comment -->
<g id="node3" class="node"><title>Comment</title>
<ellipse fill="none" stroke="black" cx="440" cy="-121" rx="58.1882" ry="18.3848"/>
<text text-anchor="middle" x="440" y="-117.4" font-family="Times Roman,serif" font-size="14.00">Comment</text>
</g>
<!-- Company -->
<g id="node4" class="node"><title>Company</title>
<ellipse fill="none" stroke="black" cx="573" cy="-121" rx="56.7776" ry="18.3848"/>
<text text-anchor="middle" x="573" y="-117.4" font-family="Times Roman,serif" font-size="14.00">Company</text>
</g>
<!-- System -->
<g id="node5" class="node"><title>System</title>
<ellipse fill="none" stroke="black" cx="316" cy="-121" rx="48.0833" ry="18.3848"/>
<text text-anchor="middle" x="316" y="-117.4" font-family="Times Roman,serif" font-size="14.00">System</text>
</g>
<!-- System&#45;&gt;IncidentHistory -->
<g id="edge4" class="edge"><title>System&#45;&gt;IncidentHistory</title>
<path fill="none" stroke="#a5d685" d="M297.542,-96.8626C285.837,-81.5557 270.676,-61.7307 258.583,-45.9162"/>
<ellipse fill="none" stroke="#a5d685" cx="299.984" cy="-100.056" rx="4.00002" ry="4.00002"/>
<polygon fill="#a5d685" stroke="#a5d685" points="258.296,-45.5408 255.796,-34.8636 255.259,-41.569 252.221,-37.5972 252.221,-37.5972 252.221,-37.5972 255.259,-41.569 248.647,-40.3307 258.296,-45.5408 258.296,-45.5408"/>
</g>
<!-- Incident -->
<g id="node9" class="node"><title>Incident</title>
<ellipse fill="none" stroke="black" cx="393" cy="-19" rx="50.9117" ry="18.3848"/>
<text text-anchor="middle" x="393" y="-15.4" font-family="Times Roman,serif" font-size="14.00">Incident</text>
</g>
<!-- System&#45;&gt;Incident -->
<g id="edge2" class="edge"><title>System&#45;&gt;Incident</title>
<path fill="none" stroke="#f2afb4" d="M334.284,-96.7796C345.995,-81.2659 361.191,-61.1372 373.189,-45.2436"/>
<ellipse fill="none" stroke="#f2afb4" cx="331.822" cy="-100.04" rx="4.00002" ry="4.00002"/>
<polygon fill="#f2afb4" stroke="#f2afb4" points="373.458,-44.8869 383.075,-39.617 376.47,-40.8963 379.483,-36.9057 379.483,-36.9057 379.483,-36.9057 376.47,-40.8963 375.891,-34.1944 373.458,-44.8869 373.458,-44.8869"/>
</g>
<!-- User -->
<g id="node6" class="node"><title>User</title>
<ellipse fill="none" stroke="black" cx="680" cy="-19" rx="33.9411" ry="18.3848"/>
<text text-anchor="middle" x="680" y="-15.4" font-family="Times Roman,serif" font-size="14.00">User</text>
</g>
<!-- Role -->
<g id="node7" class="node"><title>Role</title>
<ellipse fill="none" stroke="black" cx="680" cy="-121" rx="32.0265" ry="18.3848"/>
<text text-anchor="middle" x="680" y="-117.4" font-family="Times Roman,serif" font-size="14.00">Role</text>
</g>
<!-- Role&#45;&gt;User -->
<g id="edge6" class="edge"><title>Role&#45;&gt;User</title>
<path fill="none" stroke="#bc1787" d="M680,-94.0151C680,-79.8348 680,-62.4446 680,-47.9795"/>
<ellipse fill="none" stroke="#bc1787" cx="680" cy="-98.2916" rx="4" ry="4"/>
<polygon fill="#bc1787" stroke="#bc1787" points="680,-47.5898 684.5,-37.5897 680,-42.5898 680,-37.5898 680,-37.5898 680,-37.5898 680,-42.5898 675.5,-37.5898 680,-47.5898 680,-47.5898"/>
</g>
<!-- Contact -->
<g id="node8" class="node"><title>Contact</title>
<ellipse fill="none" stroke="black" cx="780" cy="-121" rx="50.2046" ry="18.3848"/>
<text text-anchor="middle" x="780" y="-117.4" font-family="Times Roman,serif" font-size="14.00">Contact</text>
</g>
</g>
</svg>
