<?xml version="1.0" encoding="UTF-8" standalone="no"?>
<!DOCTYPE svg PUBLIC "-//W3C//DTD SVG 1.1//EN"
 "http://www.w3.org/Graphics/SVG/1.1/DTD/svg11.dtd">
<!-- Generated by graphviz version 2.26.3 (20100126.1600)
 -->
<!-- Title: models_diagram Pages: 1 -->
<svg width="1186pt" height="476pt"
 viewBox="0.00 0.00 1186.00 476.00" xmlns="http://www.w3.org/2000/svg" xmlns:xlink="http://www.w3.org/1999/xlink">
<g id="graph1" class="graph" transform="scale(1 1) rotate(0) translate(4 472)">
<title>models_diagram</title>
<polygon fill="white" stroke="white" points="-4,5 -4,-472 1183,-472 1183,5 -4,5"/>
<!-- _diagram_info -->
<g id="node1" class="node"><title>_diagram_info</title>
<text text-anchor="start" x="8" y="-417.8" font-family="Times Roman,serif" font-size="13.00">Models diagram</text>
<text text-anchor="start" x="8" y="-400.8" font-family="Times Roman,serif" font-size="13.00">Date: Sep 02 2014 &#45; 16:19</text>
<text text-anchor="start" x="8" y="-383.8" font-family="Times Roman,serif" font-size="13.00">Migration version: 20140828125008</text>
<text text-anchor="start" x="8" y="-366.8" font-family="Times Roman,serif" font-size="13.00">Generated by RailRoady 1.1.0</text>
<text text-anchor="start" x="8" y="-349.8" font-family="Times Roman,serif" font-size="13.00">http://railroady.prestonlee.com</text>
</g>
<!-- IncidentHistory -->
<g id="node2" class="node"><title>IncidentHistory</title>
<polyline fill="none" stroke="black" points="197.5,-1 338.5,-1 "/>
<path fill="none" stroke="black" d="M338.5,-1C344.5,-1 350.5,-7 350.5,-13"/>
<polyline fill="none" stroke="black" points="350.5,-13 350.5,-257 "/>
<path fill="none" stroke="black" d="M350.5,-257C350.5,-263 344.5,-269 338.5,-269"/>
<polyline fill="none" stroke="black" points="338.5,-269 197.5,-269 "/>
<path fill="none" stroke="black" d="M197.5,-269C191.5,-269 185.5,-263 185.5,-257"/>
<polyline fill="none" stroke="black" points="185.5,-257 185.5,-13 "/>
<path fill="none" stroke="black" d="M185.5,-13C185.5,-7 191.5,-1 197.5,-1"/>
<text text-anchor="middle" x="268" y="-252.4" font-family="Times Roman,serif" font-size="14.00">IncidentHistory</text>
<polyline fill="none" stroke="black" points="185.5,-243 350.5,-243 "/>
<text text-anchor="start" x="193.5" y="-226.4" font-family="Times Roman,serif" font-size="14.00">id :integer</text>
<text text-anchor="start" x="193.5" y="-208.4" font-family="Times Roman,serif" font-size="14.00">hp_ref :string</text>
<text text-anchor="start" x="193.5" y="-190.4" font-family="Times Roman,serif" font-size="14.00">description :text</text>
<text text-anchor="start" x="193.5" y="-172.4" font-family="Times Roman,serif" font-size="14.00">resolution :text</text>
<text text-anchor="start" x="193.5" y="-154.4" font-family="Times Roman,serif" font-size="14.00">date :date</text>
<text text-anchor="start" x="193.5" y="-136.4" font-family="Times Roman,serif" font-size="14.00">status :string</text>
<text text-anchor="start" x="193.5" y="-118.4" font-family="Times Roman,serif" font-size="14.00">system_id :integer</text>
<text text-anchor="start" x="193.5" y="-100.4" font-family="Times Roman,serif" font-size="14.00">created_at :datetime</text>
<text text-anchor="start" x="193.5" y="-82.4" font-family="Times Roman,serif" font-size="14.00">updated_at :datetime</text>
<text text-anchor="start" x="193.5" y="-64.4" font-family="Times Roman,serif" font-size="14.00">title :text</text>
<text text-anchor="start" x="193.5" y="-46.4" font-family="Times Roman,serif" font-size="14.00">severity :string</text>
<text text-anchor="start" x="193.5" y="-28.4" font-family="Times Roman,serif" font-size="14.00">time :time</text>
<text text-anchor="start" x="193.5" y="-10.4" font-family="Times Roman,serif" font-size="14.00">closed_at :datetime</text>
</g>
<!-- Comment -->
<g id="node3" class="node"><title>Comment</title>
<polyline fill="none" stroke="black" points="479.5,-334 620.5,-334 "/>
<path fill="none" stroke="black" d="M620.5,-334C626.5,-334 632.5,-340 632.5,-346"/>
<polyline fill="none" stroke="black" points="632.5,-346 632.5,-428 "/>
<path fill="none" stroke="black" d="M632.5,-428C632.5,-434 626.5,-440 620.5,-440"/>
<polyline fill="none" stroke="black" points="620.5,-440 479.5,-440 "/>
<path fill="none" stroke="black" d="M479.5,-440C473.5,-440 467.5,-434 467.5,-428"/>
<polyline fill="none" stroke="black" points="467.5,-428 467.5,-346 "/>
<path fill="none" stroke="black" d="M467.5,-346C467.5,-340 473.5,-334 479.5,-334"/>
<text text-anchor="middle" x="550" y="-423.4" font-family="Times Roman,serif" font-size="14.00">Comment</text>
<polyline fill="none" stroke="black" points="467.5,-414 632.5,-414 "/>
<text text-anchor="start" x="475.5" y="-397.4" font-family="Times Roman,serif" font-size="14.00">id :integer</text>
<text text-anchor="start" x="475.5" y="-379.4" font-family="Times Roman,serif" font-size="14.00">comment :text</text>
<text text-anchor="start" x="475.5" y="-361.4" font-family="Times Roman,serif" font-size="14.00">created_at :datetime</text>
<text text-anchor="start" x="475.5" y="-343.4" font-family="Times Roman,serif" font-size="14.00">updated_at :datetime</text>
</g>
<!-- Company -->
<g id="node4" class="node"><title>Company</title>
<polyline fill="none" stroke="black" points="661.5,-334 802.5,-334 "/>
<path fill="none" stroke="black" d="M802.5,-334C808.5,-334 814.5,-340 814.5,-346"/>
<polyline fill="none" stroke="black" points="814.5,-346 814.5,-428 "/>
<path fill="none" stroke="black" d="M814.5,-428C814.5,-434 808.5,-440 802.5,-440"/>
<polyline fill="none" stroke="black" points="802.5,-440 661.5,-440 "/>
<path fill="none" stroke="black" d="M661.5,-440C655.5,-440 649.5,-434 649.5,-428"/>
<polyline fill="none" stroke="black" points="649.5,-428 649.5,-346 "/>
<path fill="none" stroke="black" d="M649.5,-346C649.5,-340 655.5,-334 661.5,-334"/>
<text text-anchor="middle" x="732" y="-423.4" font-family="Times Roman,serif" font-size="14.00">Company</text>
<polyline fill="none" stroke="black" points="649.5,-414 814.5,-414 "/>
<text text-anchor="start" x="657.5" y="-397.4" font-family="Times Roman,serif" font-size="14.00">id :integer</text>
<text text-anchor="start" x="657.5" y="-379.4" font-family="Times Roman,serif" font-size="14.00">name :string</text>
<text text-anchor="start" x="657.5" y="-361.4" font-family="Times Roman,serif" font-size="14.00">created_at :datetime</text>
<text text-anchor="start" x="657.5" y="-343.4" font-family="Times Roman,serif" font-size="14.00">updated_at :datetime</text>
</g>
<!-- System -->
<g id="node5" class="node"><title>System</title>
<polyline fill="none" stroke="black" points="280,-307 438,-307 "/>
<path fill="none" stroke="black" d="M438,-307C444,-307 450,-313 450,-319"/>
<polyline fill="none" stroke="black" points="450,-319 450,-455 "/>
<path fill="none" stroke="black" d="M450,-455C450,-461 444,-467 438,-467"/>
<polyline fill="none" stroke="black" points="438,-467 280,-467 "/>
<path fill="none" stroke="black" d="M280,-467C274,-467 268,-461 268,-455"/>
<polyline fill="none" stroke="black" points="268,-455 268,-319 "/>
<path fill="none" stroke="black" d="M268,-319C268,-313 274,-307 280,-307"/>
<text text-anchor="middle" x="359" y="-450.4" font-family="Times Roman,serif" font-size="14.00">System</text>
<polyline fill="none" stroke="black" points="268,-441 450,-441 "/>
<text text-anchor="start" x="276" y="-424.4" font-family="Times Roman,serif" font-size="14.00">id :integer</text>
<text text-anchor="start" x="276" y="-406.4" font-family="Times Roman,serif" font-size="14.00">name :string</text>
<text text-anchor="start" x="276" y="-388.4" font-family="Times Roman,serif" font-size="14.00">status :string</text>
<text text-anchor="start" x="276" y="-370.4" font-family="Times Roman,serif" font-size="14.00">created_at :datetime</text>
<text text-anchor="start" x="276" y="-352.4" font-family="Times Roman,serif" font-size="14.00">updated_at :datetime</text>
<text text-anchor="start" x="276" y="-334.4" font-family="Times Roman,serif" font-size="14.00">row_id :integer</text>
<text text-anchor="start" x="276" y="-316.4" font-family="Times Roman,serif" font-size="14.00">last_incident_date :date</text>
</g>
<!-- System&#45;&gt;IncidentHistory -->
<g id="edge4" class="edge"><title>System&#45;&gt;IncidentHistory</title>
<path fill="none" stroke="#7c480c" d="M327.286,-299.176C324.865,-292.472 322.386,-285.609 319.882,-278.672"/>
<ellipse fill="none" stroke="#7c480c" cx="328.723" cy="-303.157" rx="4.00001" ry="4.00001"/>
<polygon fill="#7c480c" stroke="#7c480c" points="319.849,-278.582 320.685,-267.648 318.151,-273.879 316.453,-269.177 316.453,-269.177 316.453,-269.177 318.151,-273.879 312.22,-270.705 319.849,-278.582 319.849,-278.582"/>
</g>
<!-- Incident -->
<g id="node9" class="node"><title>Incident</title>
<polyline fill="none" stroke="black" points="379.5,-1 520.5,-1 "/>
<path fill="none" stroke="black" d="M520.5,-1C526.5,-1 532.5,-7 532.5,-13"/>
<polyline fill="none" stroke="black" points="532.5,-13 532.5,-257 "/>
<path fill="none" stroke="black" d="M532.5,-257C532.5,-263 526.5,-269 520.5,-269"/>
<polyline fill="none" stroke="black" points="520.5,-269 379.5,-269 "/>
<path fill="none" stroke="black" d="M379.5,-269C373.5,-269 367.5,-263 367.5,-257"/>
<polyline fill="none" stroke="black" points="367.5,-257 367.5,-13 "/>
<path fill="none" stroke="black" d="M367.5,-13C367.5,-7 373.5,-1 379.5,-1"/>
<text text-anchor="middle" x="450" y="-252.4" font-family="Times Roman,serif" font-size="14.00">Incident</text>
<polyline fill="none" stroke="black" points="367.5,-243 532.5,-243 "/>
<text text-anchor="start" x="375.5" y="-226.4" font-family="Times Roman,serif" font-size="14.00">id :integer</text>
<text text-anchor="start" x="375.5" y="-208.4" font-family="Times Roman,serif" font-size="14.00">hp_ref :string</text>
<text text-anchor="start" x="375.5" y="-190.4" font-family="Times Roman,serif" font-size="14.00">description :text</text>
<text text-anchor="start" x="375.5" y="-172.4" font-family="Times Roman,serif" font-size="14.00">resolution :text</text>
<text text-anchor="start" x="375.5" y="-154.4" font-family="Times Roman,serif" font-size="14.00">date :date</text>
<text text-anchor="start" x="375.5" y="-136.4" font-family="Times Roman,serif" font-size="14.00">status :string</text>
<text text-anchor="start" x="375.5" y="-118.4" font-family="Times Roman,serif" font-size="14.00">system_id :integer</text>
<text text-anchor="start" x="375.5" y="-100.4" font-family="Times Roman,serif" font-size="14.00">created_at :datetime</text>
<text text-anchor="start" x="375.5" y="-82.4" font-family="Times Roman,serif" font-size="14.00">updated_at :datetime</text>
<text text-anchor="start" x="375.5" y="-64.4" font-family="Times Roman,serif" font-size="14.00">title :text</text>
<text text-anchor="start" x="375.5" y="-46.4" font-family="Times Roman,serif" font-size="14.00">severity :string</text>
<text text-anchor="start" x="375.5" y="-28.4" font-family="Times Roman,serif" font-size="14.00">time :time</text>
<text text-anchor="start" x="375.5" y="-10.4" font-family="Times Roman,serif" font-size="14.00">closed_at :datetime</text>
</g>
<!-- System&#45;&gt;Incident -->
<g id="edge2" class="edge"><title>System&#45;&gt;Incident</title>
<path fill="none" stroke="#a2a15b" d="M390.714,-299.176C393.135,-292.472 395.614,-285.609 398.118,-278.672"/>
<ellipse fill="none" stroke="#a2a15b" cx="389.277" cy="-303.157" rx="4.00001" ry="4.00001"/>
<polygon fill="#a2a15b" stroke="#a2a15b" points="398.151,-278.582 405.78,-270.705 399.849,-273.879 401.547,-269.177 401.547,-269.177 401.547,-269.177 399.849,-273.879 397.315,-267.648 398.151,-278.582 398.151,-278.582"/>
</g>
<!-- User -->
<g id="node6" class="node"><title>User</title>
<polyline fill="none" stroke="black" points="836.5,-46 991.5,-46 "/>
<path fill="none" stroke="black" d="M991.5,-46C997.5,-46 1003.5,-52 1003.5,-58"/>
<polyline fill="none" stroke="black" points="1003.5,-58 1003.5,-212 "/>
<path fill="none" stroke="black" d="M1003.5,-212C1003.5,-218 997.5,-224 991.5,-224"/>
<polyline fill="none" stroke="black" points="991.5,-224 836.5,-224 "/>
<path fill="none" stroke="black" d="M836.5,-224C830.5,-224 824.5,-218 824.5,-212"/>
<polyline fill="none" stroke="black" points="824.5,-212 824.5,-58 "/>
<path fill="none" stroke="black" d="M824.5,-58C824.5,-52 830.5,-46 836.5,-46"/>
<text text-anchor="middle" x="914" y="-207.4" font-family="Times Roman,serif" font-size="14.00">User</text>
<polyline fill="none" stroke="black" points="824.5,-198 1003.5,-198 "/>
<text text-anchor="start" x="832.5" y="-181.4" font-family="Times Roman,serif" font-size="14.00">id :integer</text>
<text text-anchor="start" x="832.5" y="-163.4" font-family="Times Roman,serif" font-size="14.00">email :string</text>
<text text-anchor="start" x="832.5" y="-145.4" font-family="Times Roman,serif" font-size="14.00">name :string</text>
<text text-anchor="start" x="832.5" y="-127.4" font-family="Times Roman,serif" font-size="14.00">password_digest :string</text>
<text text-anchor="start" x="832.5" y="-109.4" font-family="Times Roman,serif" font-size="14.00">role_id :integer</text>
<text text-anchor="start" x="832.5" y="-91.4" font-family="Times Roman,serif" font-size="14.00">created_at :datetime</text>
<text text-anchor="start" x="832.5" y="-73.4" font-family="Times Roman,serif" font-size="14.00">updated_at :datetime</text>
<text text-anchor="start" x="832.5" y="-55.4" font-family="Times Roman,serif" font-size="14.00">auth_token :string</text>
</g>
<!-- Role -->
<g id="node7" class="node"><title>Role</title>
<polyline fill="none" stroke="black" points="843.5,-325 984.5,-325 "/>
<path fill="none" stroke="black" d="M984.5,-325C990.5,-325 996.5,-331 996.5,-337"/>
<polyline fill="none" stroke="black" points="996.5,-337 996.5,-437 "/>
<path fill="none" stroke="black" d="M996.5,-437C996.5,-443 990.5,-449 984.5,-449"/>
<polyline fill="none" stroke="black" points="984.5,-449 843.5,-449 "/>
<path fill="none" stroke="black" d="M843.5,-449C837.5,-449 831.5,-443 831.5,-437"/>
<polyline fill="none" stroke="black" points="831.5,-437 831.5,-337 "/>
<path fill="none" stroke="black" d="M831.5,-337C831.5,-331 837.5,-325 843.5,-325"/>
<text text-anchor="middle" x="914" y="-432.4" font-family="Times Roman,serif" font-size="14.00">Role</text>
<polyline fill="none" stroke="black" points="831.5,-423 996.5,-423 "/>
<text text-anchor="start" x="839.5" y="-406.4" font-family="Times Roman,serif" font-size="14.00">id :integer</text>
<text text-anchor="start" x="839.5" y="-388.4" font-family="Times Roman,serif" font-size="14.00">name :string</text>
<text text-anchor="start" x="839.5" y="-370.4" font-family="Times Roman,serif" font-size="14.00">description :string</text>
<text text-anchor="start" x="839.5" y="-352.4" font-family="Times Roman,serif" font-size="14.00">created_at :datetime</text>
<text text-anchor="start" x="839.5" y="-334.4" font-family="Times Roman,serif" font-size="14.00">updated_at :datetime</text>
</g>
<!-- Role&#45;&gt;User -->
<g id="edge6" class="edge"><title>Role&#45;&gt;User</title>
<path fill="none" stroke="#abb264" d="M914,-316.383C914,-290.904 914,-261.653 914,-234.185"/>
<ellipse fill="none" stroke="#abb264" cx="914" cy="-320.708" rx="4" ry="4"/>
<polygon fill="#abb264" stroke="#abb264" points="914,-234.156 918.5,-224.156 914,-229.156 914,-224.156 914,-224.156 914,-224.156 914,-229.156 909.5,-224.156 914,-234.156 914,-234.156"/>
</g>
<!-- Contact -->
<g id="node8" class="node"><title>Contact</title>
<polyline fill="none" stroke="black" points="1025.5,-325 1166.5,-325 "/>
<path fill="none" stroke="black" d="M1166.5,-325C1172.5,-325 1178.5,-331 1178.5,-337"/>
<polyline fill="none" stroke="black" points="1178.5,-337 1178.5,-437 "/>
<path fill="none" stroke="black" d="M1178.5,-437C1178.5,-443 1172.5,-449 1166.5,-449"/>
<polyline fill="none" stroke="black" points="1166.5,-449 1025.5,-449 "/>
<path fill="none" stroke="black" d="M1025.5,-449C1019.5,-449 1013.5,-443 1013.5,-437"/>
<polyline fill="none" stroke="black" points="1013.5,-437 1013.5,-337 "/>
<path fill="none" stroke="black" d="M1013.5,-337C1013.5,-331 1019.5,-325 1025.5,-325"/>
<text text-anchor="middle" x="1096" y="-432.4" font-family="Times Roman,serif" font-size="14.00">Contact</text>
<polyline fill="none" stroke="black" points="1013.5,-423 1178.5,-423 "/>
<text text-anchor="start" x="1021.5" y="-406.4" font-family="Times Roman,serif" font-size="14.00">id :integer</text>
<text text-anchor="start" x="1021.5" y="-388.4" font-family="Times Roman,serif" font-size="14.00">contact :string</text>
<text text-anchor="start" x="1021.5" y="-370.4" font-family="Times Roman,serif" font-size="14.00">message :text</text>
<text text-anchor="start" x="1021.5" y="-352.4" font-family="Times Roman,serif" font-size="14.00">created_at :datetime</text>
<text text-anchor="start" x="1021.5" y="-334.4" font-family="Times Roman,serif" font-size="14.00">updated_at :datetime</text>
</g>
</g>
</svg>
